<?xml version="1.0" encoding="UTF-8"?>
<svg id="Layer_2" data-name="Layer 2" xmlns="http://www.w3.org/2000/svg" viewBox="0 0 541.26 411.74">
  <g id="Layer_1-2" data-name="Layer 1">
    <g>
      <polygon points="179.77 36.99 85.05 36.99 0 69.85 0 257.57 19.33 375.47 98.59 411.74 404.01 400.4 527.73 375.47 541.26 305.68 541.26 165.98 541.26 91.11 484.85 46.65 388.55 36.99 336.03 .26 217.67 0 179.77 36.99" style="fill: #3883ce;"/>
      <path d="m84.02,358.99c-6.56-.78-12.62-3.76-17.35-8.59-5.47-5.59-8.5-13.01-8.53-20.89l-.73-205.85c-.06-16.38,13.02-29.79,29.15-29.89l121.82-.78c.62,0,1.21-.44,1.53-1.13l14.8-31.91c4.8-10.34,15.18-17.05,26.44-17.09l33.39-.12c12.09-.05,22.81,7.29,27.32,18.67l11.72,29.57c.31.77.95,1.28,1.61,1.27h0s124.85-.8,124.85-.8c7.77-.06,15.11,2.96,20.67,8.46,5.68,5.63,8.83,13.16,8.86,21.22l.73,206.9c.03,7.88-2.95,15.32-8.38,20.95-5.53,5.74-12.94,8.91-20.85,8.94l-363.49,1.28c-1.2,0-2.39-.06-3.57-.2ZM284.82,70.3c-.06,0-.11-.01-.17,0l-33.39.12c-.63,0-1.22.44-1.54,1.13l-14.8,31.91c-4.78,10.31-15.13,17.02-26.35,17.09l-121.82.78c-.97,0-1.78,1.03-1.77,2.24l.73,205.85c0,.91.42,1.46.67,1.72.33.34.72.52,1.13.51l363.49-1.28c.41,0,.79-.18,1.12-.52.25-.25.66-.82.65-1.72l-.73-206.9c0-.92-.43-1.49-.69-1.74-.33-.33-.71-.49-1.11-.49l-124.85.8c-12.11.07-22.88-7.25-27.4-18.67l-11.72-29.57c-.28-.71-.84-1.19-1.44-1.26Z" style="fill: #000100;"/>
      <path d="m262.62,285.86l-2.3-.28-2.09-.33-2.08-.4-2.07-.48-2.04-.55-2.03-.62-2.01-.69-1.98-.76-1.94-.83-1.93-.9-1.88-.96-1.85-1.03-1.82-1.09-1.77-1.15-1.73-1.21-1.69-1.27-1.64-1.33-1.6-1.39-1.54-1.44-1.5-1.5-1.44-1.55-1.38-1.59-1.34-1.65-1.27-1.68-1.21-1.73-1.16-1.77-1.1-1.82-1.02-1.84-.97-1.89-.9-1.92-.83-1.95-.76-1.98-.69-2-.62-2.03-.55-2.05-.47-2.06-.4-2.08-.33-2.09-.26-2.1-.18-2.11-.11-2.1-.04-2.12.04-2.11.11-2.12.18-2.1.22-1.91.36-2.29.4-2.08.48-2.07.55-2.04.62-2.03.69-2.01.76-1.97.83-1.95.89-1.92.97-1.89,1.03-1.85,1.09-1.82,1.15-1.77,1.21-1.73,1.27-1.69,1.33-1.64,1.39-1.6,1.44-1.55,1.49-1.49,1.55-1.45,1.59-1.38,1.65-1.34,1.68-1.27,1.73-1.21,1.77-1.16,1.81-1.09,1.85-1.03,1.89-.97,1.92-.9,1.96-.83,1.97-.76,2.01-.69,2.03-.62,2.05-.55,2.06-.47,2.08-.4,2.08-.33,2.1-.26,2.11-.18,2.11-.11,2.1-.04,2.12.03,2.1.11,2.11.18,1.9.22,2.29.36,2.08.4,2.07.47,2.05.55,2.03.62,2.01.69,1.98.76,1.94.83,1.92.9,1.89.96,1.85,1.03,1.81,1.09,1.77,1.15,1.73,1.21,1.69,1.27,1.64,1.33,1.59,1.39,1.55,1.44,1.49,1.49,1.45,1.55,1.39,1.59,1.33,1.64,1.28,1.69,1.22,1.73,1.15,1.77,1.09,1.81,1.03,1.85.96,1.89.9,1.92.83,1.95.76,1.98.69,2,.62,2.03.55,2.04.48,2.07.4,2.07.33,2.1.26,2.1.18,2.1.11,2.11.04,2.11-.04,2.11-.11,2.12-.18,2.1-.22,1.9-.36,2.29-.4,2.08-.47,2.06-.55,2.05-.62,2.03-.69,2-.76,1.98-.83,1.95-.9,1.92-.96,1.88-1.03,1.86-1.09,1.81-1.15,1.77-1.21,1.73-1.27,1.69-1.33,1.64-1.39,1.59-1.44,1.55-1.49,1.49-1.54,1.44-1.6,1.39-1.64,1.33-1.69,1.28-1.73,1.22-1.78,1.16-1.81,1.09-1.86,1.03-1.88.96-1.92.9-1.95.83-1.98.76-2,.69-2.02.62-2.05.55-2.07.48-2.07.4-2.09.33-2.09.26-2.11.18-2.11.11-2.1.04-2.12-.03-2.1-.11-1.91-.16Zm.99-23l1.31.15,2.63.17h2.65s2.63-.2,2.63-.2l1.31-.16,2.59-.46,1.27-.3,2.52-.73,1.24-.43,2.43-.99,2.36-1.16,2.27-1.33,1.1-.72,2.12-1.56,2.01-1.7,1.89-1.84,1.76-1.96,1.62-2.08,1.47-2.18.67-1.12,1.23-2.33.55-1.19.51-1.21.89-2.47.38-1.25.62-2.55.44-2.59.26-2.62.08-2.64-.1-2.64-.28-2.62-.46-2.58-.3-1.28-.34-1.27-.39-1.25-.43-1.24-.99-2.43-1.16-2.35-.64-1.15-1.4-2.23-1.56-2.12-1.7-2.01-.9-.96-1.9-1.82-1-.86-2.08-1.62-1.08-.75-2.1-2.51-2.45-.1-2.41-1.06-1.22-.47-1.24-.42-2.53-.71-1.28-.29-2.59-.44-2.62-.26-2.64-.08-2.64.1-1.31.12-2.6.37-2.57.55-1.26.34-2.49.82-1.23.48-1.2.52-1.19.56-2.31,1.24-1.12.68-2.18,1.48-2.07,1.63-.99.87-1.89,1.84-.89.96-.86,1-1.61,2.08-1.47,2.19-1.31,2.28-.59,1.17-.55,1.19-.98,2.44-.42,1.24-.38,1.26-.33,1.27-.29,1.28-.44,2.59-.26,2.62-.08,2.64.1,2.64.28,2.61.46,2.59.64,2.55.82,2.49.47,1.22,1.08,2.39.6,1.17,1.32,2.27,1.48,2.18.8,1.05,1.7,2.01,1.84,1.89.96.89,2.03,1.69,2.13,1.54,1.11.71,1.13.67,2.32,1.23,1.19.55,2.44.98,2.5.8,1.27.33,2.57.53,1.3.2Z" style="fill: #000100;"/>
      <polygon points="355.71 137.59 366.91 155.66 385.12 166.62 367.05 177.81 356.1 196.02 344.9 177.96 326.69 167 344.76 155.81 355.71 137.59" style="fill: #000100;"/>
    </g>
  </g>
</svg>
